<svg xmlns="http://www.w3.org/2000/svg" viewBox="0 0 200 200">
  <defs>
    <linearGradient id="grad1" x1="0%" y1="0%" x2="100%" y2="100%">
      <stop offset="0%" style="stop-color:rgb(255,100,200);stop-opacity:1" />
      <stop offset="100%" style="stop-color:rgb(200,50,150);stop-opacity:1" />
    </linearGradient>
  </defs>
  <rect width="200" height="200" fill="#fdf2f8"/>
  <circle cx="100" cy="100" r="80" fill="url(#grad1)" opacity="0.2" />
  <!-- Simple artistic representation of an orchid shape -->
  <path d="M100 40 
           C 130 20, 170 20, 160 60
           C 180 90, 160 130, 100 120
           C 40 130, 20 90, 40 60
           C 30 20, 70 20, 100 40 Z" fill="#db2777" />
  <path d="M100 120 
           C 120 160, 80 160, 100 120" fill="#fbcfe8" />
  <circle cx="100" cy="90" r="10" fill="#fce7f3" />
  <path d="M100 160 L 100 200" stroke="#064e3b" stroke-width="4" />
  <path d="M100 180 Q 130 170 140 190" stroke="#064e3b" stroke-width="3" fill="none"/>
  <path d="M100 180 Q 70 170 60 190" stroke="#064e3b" stroke-width="3" fill="none"/>
</svg>
